<?xml version="1.0" standalone="no"?>
<!DOCTYPE svg PUBLIC "-//W3C//DTD SVG 20010904//EN"
 "http://www.w3.org/TR/2001/REC-SVG-20010904/DTD/svg10.dtd">
<svg version="1.0" xmlns="http://www.w3.org/2000/svg"
 width="810.000000pt" height="810.000000pt" viewBox="0 0 810.000000 810.000000"
 preserveAspectRatio="xMidYMid meet">
<metadata>
Created by potrace 1.11, written by Peter Selinger 2001-2013
</metadata>
<g transform="translate(0.000000,810.000000) scale(0.100000,-0.100000)"
fill="#000000" stroke="none">
<path d="M2674 7706 c-12 -33 1 -51 38 -54 l36 -3 5 -262 c4 -246 6 -268 31
-357 32 -115 98 -256 166 -354 60 -87 222 -247 309 -306 92 -62 236 -127 348
-158 l98 -27 1320 -5 c1473 -6 1355 0 1515 -77 56 -27 94 -55 155 -117 86 -87
128 -155 166 -271 22 -67 23 -86 27 -455 3 -263 0 -413 -8 -475 -35 -265 -191
-453 -437 -531 l-83 -26 0 -270 0 -270 58 6 c147 18 304 76 496 183 70 39 244
209 306 298 69 101 135 243 168 362 l27 98 0 565 0 565 -28 100 c-31 113 -95
254 -158 347 -59 87 -208 238 -296 299 -99 68 -242 134 -360 167 l-98 27
-1330 5 c-1236 5 -1334 7 -1390 23 -228 68 -370 209 -445 442 -20 60 -24 98
-28 273 l-4 202 41 0 c40 0 41 1 41 35 l0 35 -340 0 c-287 0 -341 -2 -346 -14z"/>
<path d="M5310 7651 l0 -39 -227 -5 c-208 -4 -237 -7 -323 -31 -108 -30 -250
-95 -342 -157 -81 -55 -228 -197 -282 -274 -57 -80 -129 -222 -160 -317 -14
-42 -26 -81 -26 -87 0 -8 88 -11 283 -11 l283 0 42 64 c79 121 197 205 357
256 56 18 102 23 233 27 l162 6 0 -42 c0 -40 1 -41 35 -41 l35 0 0 345 0 345
-35 0 c-34 0 -35 -1 -35 -39z"/>
<path d="M1354 6886 c-13 -33 0 -51 39 -54 l37 -3 0 -605 0 -604 265 0 265 0
0 604 0 605 38 3 c34 3 37 6 37 33 l0 30 -338 3 c-288 2 -338 0 -343 -12z"/>
<path d="M3923 5928 c4 -213 7 -241 31 -328 32 -115 98 -256 166 -354 60 -87
222 -247 309 -306 94 -63 238 -128 348 -156 80 -21 136 -27 298 -34 221 -9
277 -20 394 -77 56 -26 94 -55 150 -112 82 -82 124 -152 162 -266 23 -69 23
-77 27 -592 l3 -523 265 0 265 0 -3 578 -4 577 -27 95 c-58 203 -158 369 -314
521 -113 111 -189 164 -319 226 -151 71 -255 93 -489 103 -221 9 -277 20 -394
77 -92 44 -211 158 -258 248 -61 118 -75 182 -81 378 l-4 177 -265 0 -265 0 5
-232z"/>
<path d="M3617 5674 c-4 -4 -7 -22 -7 -40 l0 -33 -1242 -3 -1243 -3 -95 -28
c-116 -33 -257 -100 -354 -167 -87 -60 -247 -222 -306 -309 -62 -92 -127 -236
-158 -348 l-27 -98 0 -530 0 -530 28 -100 c31 -113 95 -254 158 -347 58 -87
218 -248 306 -309 99 -68 242 -134 360 -167 l98 -27 1178 -3 1177 -3 0 265 0
265 -1122 3 c-1253 4 -1158 -2 -1317 75 -56 26 -94 55 -150 112 -84 84 -126
155 -163 271 -23 74 -23 83 -23 490 0 463 1 472 72 619 26 56 55 94 112 150
81 81 151 124 266 163 l70 23 1187 3 1187 3 3 -38 c3 -35 6 -38 33 -38 l30 0
0 340 0 340 -25 3 c-14 2 -29 0 -33 -4z"/>
<path d="M1430 4115 l0 -935 265 0 265 0 0 935 0 935 -265 0 -265 0 0 -935z"/>
<path d="M4465 4209 c-147 -24 -319 -94 -450 -182 -84 -57 -246 -217 -306
-304 -68 -99 -134 -241 -167 -360 l-27 -98 0 -905 0 -905 28 -100 c33 -119 98
-259 167 -359 60 -87 222 -247 309 -306 92 -62 236 -127 348 -158 l98 -27
1818 -3 1817 -2 0 265 0 265 -1762 2 c-1662 3 -1766 4 -1823 21 -121 36 -204
85 -284 166 -84 84 -126 155 -163 271 l-23 75 0 790 c0 882 -3 839 72 994 26
56 55 94 112 150 81 82 152 124 266 162 70 23 72 24 683 27 l612 3 0 227 c0
125 -3 244 -6 265 l-7 37 -631 -1 c-347 -1 -653 -5 -681 -10z"/>
<path d="M7420 3200 l0 -40 -1669 0 c-1325 0 -1671 -3 -1678 -12 -4 -7 -10
-127 -11 -265 l-4 -253 1681 0 1681 0 0 -40 c0 -39 1 -40 35 -40 l35 0 0 345
0 345 -35 0 c-34 0 -35 -1 -35 -40z"/>
<path d="M5756 2559 c-40 -109 -149 -236 -260 -300 -28 -16 -87 -41 -131 -56
l-80 -28 -612 -3 -613 -3 0 -265 0 -265 668 3 667 4 95 27 c110 32 252 98 342
158 120 82 337 303 338 346 0 6 3 13 8 15 18 8 105 216 128 305 13 52 24 99
24 104 0 5 -125 9 -278 9 l-278 0 -18 -51z"/>
<path d="M1430 2001 l0 -600 -37 -3 c-35 -3 -38 -6 -38 -33 l0 -30 340 0 340
0 0 30 c0 27 -3 30 -37 33 l-38 3 0 600 0 599 -265 0 -265 0 0 -599z"/>
<path d="M3345 2144 c-103 -28 -246 -93 -337 -155 -87 -58 -248 -218 -309
-306 -69 -100 -135 -243 -166 -360 -24 -91 -27 -116 -31 -365 l-4 -267 -36 -3
c-34 -3 -37 -6 -37 -33 l0 -30 340 0 340 0 0 30 c0 28 -3 30 -39 33 l-38 3 5
212 c5 234 13 281 72 402 61 128 194 248 326 296 l59 22 0 273 0 274 -27 -1
c-16 0 -68 -11 -118 -25z"/>
</g>
</svg>
